<svg width="15" height="10" viewBox="0 0 15 10" fill="none" xmlns="http://www.w3.org/2000/svg">
<path d="M6.15551 9.57227C6.02425 9.57254 5.89422 9.54688 5.77289 9.49677C5.65157 9.44666 5.54133 9.37309 5.44851 9.28027L1.20651 5.03727C1.11094 4.94509 1.03468 4.8348 0.982188 4.71283C0.929694 4.59087 0.902017 4.45967 0.90077 4.32689C0.899524 4.19411 0.924733 4.06242 0.974927 3.93949C1.02512 3.81656 1.09929 3.70485 1.19312 3.6109C1.28695 3.51694 1.39854 3.44261 1.5214 3.39224C1.64426 3.34187 1.77592 3.31647 1.9087 3.31753C2.04148 3.31859 2.17272 3.34608 2.29476 3.39841C2.4168 3.45073 2.5272 3.52683 2.61951 3.62227L6.15451 7.15727L12.5195 0.794271C12.707 0.60663 12.9614 0.501162 13.2267 0.501068C13.4919 0.500974 13.7464 0.606263 13.934 0.793771C14.1217 0.981279 14.2271 1.23565 14.2272 1.50092C14.2273 1.76619 14.122 2.02063 13.9345 2.20827L6.86251 9.28027C6.76969 9.37309 6.65946 9.44666 6.53813 9.49677C6.41681 9.54688 6.28678 9.57254 6.15551 9.57227Z" fill="#2FAB73"/>
</svg>
