<svg width="152" height="45" viewBox="0 0 152 45" fill="none" xmlns="http://www.w3.org/2000/svg">
<path d="M51.04 25.1162C50.9067 25.1162 50.7933 25.0695 50.7 24.9762C50.6067 24.8829 50.56 24.7695 50.56 24.6362V11.5962C50.56 11.4495 50.6067 11.3362 50.7 11.2562C50.7933 11.1629 50.9067 11.1162 51.04 11.1162H52.9C53.0467 11.1162 53.16 11.1629 53.24 11.2562C53.3333 11.3362 53.38 11.4495 53.38 11.5962V22.7362H59.72C59.8667 22.7362 59.9867 22.7829 60.08 22.8762C60.1733 22.9695 60.22 23.0895 60.22 23.2362V24.6362C60.22 24.7829 60.1733 24.9029 60.08 24.9962C59.9867 25.0762 59.8667 25.1162 59.72 25.1162H51.04ZM64.9416 25.3162C64.2616 25.3162 63.6349 25.1829 63.0616 24.9162C62.5016 24.6362 62.0549 24.2629 61.7216 23.7962C61.4016 23.3295 61.2416 22.8162 61.2416 22.2562C61.2416 21.3495 61.6082 20.6162 62.3416 20.0562C63.0749 19.4962 64.0816 19.1162 65.3616 18.9162L68.1016 18.5162V18.0962C68.1016 17.5095 67.9549 17.0695 67.6616 16.7762C67.3682 16.4829 66.8949 16.3362 66.2416 16.3362C65.8016 16.3362 65.4416 16.4229 65.1616 16.5962C64.8949 16.7562 64.6816 16.9162 64.5216 17.0762C64.3616 17.2495 64.2549 17.3629 64.2016 17.4162C64.1482 17.5762 64.0482 17.6562 63.9016 17.6562H62.3616C62.2416 17.6562 62.1349 17.6162 62.0416 17.5362C61.9616 17.4562 61.9216 17.3495 61.9216 17.2162C61.9349 16.8829 62.0949 16.5029 62.4016 16.0762C62.7216 15.6495 63.2082 15.2829 63.8616 14.9762C64.5149 14.6695 65.3149 14.5162 66.2616 14.5162C67.8349 14.5162 68.9816 14.8695 69.7016 15.5762C70.4216 16.2829 70.7816 17.2095 70.7816 18.3562V24.6362C70.7816 24.7695 70.7349 24.8829 70.6416 24.9762C70.5616 25.0695 70.4482 25.1162 70.3016 25.1162H68.6816C68.5482 25.1162 68.4349 25.0695 68.3416 24.9762C68.2482 24.8829 68.2016 24.7695 68.2016 24.6362V23.8562C67.9082 24.2829 67.4882 24.6362 66.9416 24.9162C66.4082 25.1829 65.7416 25.3162 64.9416 25.3162ZM65.6216 23.4162C66.3549 23.4162 66.9549 23.1762 67.4216 22.6962C67.8882 22.2162 68.1216 21.5162 68.1216 20.5962V20.1762L66.1216 20.4962C65.3482 20.6162 64.7616 20.8095 64.3616 21.0762C63.9749 21.3429 63.7816 21.6695 63.7816 22.0562C63.7816 22.4829 63.9616 22.8162 64.3216 23.0562C64.6816 23.2962 65.1149 23.4162 65.6216 23.4162ZM77.2873 25.3162C76.2873 25.3162 75.4473 25.1695 74.7673 24.8762C74.0873 24.5695 73.5807 24.2162 73.2473 23.8162C72.9273 23.4029 72.7673 23.0495 72.7673 22.7562C72.7673 22.6229 72.814 22.5162 72.9073 22.4362C73.0007 22.3562 73.1073 22.3162 73.2273 22.3162H74.8073C74.9273 22.3162 75.0273 22.3629 75.1073 22.4562C75.1607 22.4962 75.3007 22.6162 75.5273 22.8162C75.754 23.0295 76.0207 23.1962 76.3273 23.3162C76.634 23.4362 76.974 23.4962 77.3473 23.4962C77.8807 23.4962 78.3207 23.3895 78.6673 23.1762C79.014 22.9629 79.1873 22.6695 79.1873 22.2962C79.1873 22.0162 79.1073 21.7895 78.9473 21.6162C78.8007 21.4429 78.5273 21.2895 78.1273 21.1562C77.7273 21.0095 77.134 20.8562 76.3473 20.6962C75.214 20.4562 74.374 20.0895 73.8273 19.5962C73.294 19.1029 73.0273 18.4495 73.0273 17.6362C73.0273 17.1029 73.1873 16.6029 73.5073 16.1362C73.8273 15.6562 74.3007 15.2695 74.9273 14.9762C75.5673 14.6695 76.3273 14.5162 77.2073 14.5162C78.1007 14.5162 78.874 14.6629 79.5273 14.9562C80.1807 15.2362 80.674 15.5762 81.0073 15.9762C81.354 16.3629 81.5273 16.7095 81.5273 17.0162C81.5273 17.1362 81.4807 17.2429 81.3873 17.3362C81.3073 17.4162 81.2073 17.4562 81.0873 17.4562H79.6073C79.5007 17.4562 79.3873 17.4095 79.2673 17.3162C79.174 17.2495 79.0273 17.1229 78.8273 16.9362C78.6273 16.7495 78.394 16.6029 78.1273 16.4962C77.8607 16.3895 77.5473 16.3362 77.1873 16.3362C76.694 16.3362 76.3073 16.4429 76.0273 16.6562C75.7607 16.8695 75.6273 17.1495 75.6273 17.4962C75.6273 17.7495 75.694 17.9562 75.8273 18.1162C75.9607 18.2762 76.2207 18.4295 76.6073 18.5762C76.994 18.7229 77.574 18.8695 78.3473 19.0162C79.6273 19.2695 80.5407 19.6629 81.0873 20.1962C81.6473 20.7295 81.9273 21.3829 81.9273 22.1562C81.9273 23.0895 81.5207 23.8495 80.7073 24.4362C79.894 25.0229 78.754 25.3162 77.2873 25.3162ZM84.4919 25.1162C84.3585 25.1162 84.2452 25.0695 84.1519 24.9762C84.0585 24.8829 84.0119 24.7695 84.0119 24.6362V11.3962C84.0119 11.2495 84.0585 11.1362 84.1519 11.0562C84.2452 10.9629 84.3585 10.9162 84.4919 10.9162H86.1519C86.2985 10.9162 86.4119 10.9629 86.4919 11.0562C86.5852 11.1362 86.6319 11.2495 86.6319 11.3962V24.6362C86.6319 24.7695 86.5852 24.8829 86.4919 24.9762C86.4119 25.0695 86.2985 25.1162 86.1519 25.1162H84.4919ZM93.7648 25.3162C92.2848 25.3162 91.1048 24.8895 90.2248 24.0362C89.3582 23.1695 88.8982 21.9562 88.8448 20.3962L88.8248 19.8962L88.8448 19.3962C88.9115 17.8762 89.3782 16.6829 90.2448 15.8162C91.1248 14.9495 92.2982 14.5162 93.7648 14.5162C95.3382 14.5162 96.5515 14.9962 97.4048 15.9562C98.2715 16.9162 98.7048 18.1962 98.7048 19.7962V20.2162C98.7048 20.3495 98.6582 20.4629 98.5648 20.5562C98.4715 20.6495 98.3515 20.6962 98.2048 20.6962H91.5648V20.8562C91.5915 21.5895 91.7915 22.2095 92.1648 22.7162C92.5515 23.2095 93.0782 23.4562 93.7448 23.4562C94.5315 23.4562 95.1648 23.1495 95.6448 22.5362C95.7648 22.3895 95.8582 22.2962 95.9248 22.2562C96.0048 22.2162 96.1182 22.1962 96.2648 22.1962H97.9848C98.1048 22.1962 98.2048 22.2362 98.2848 22.3162C98.3782 22.3829 98.4248 22.4695 98.4248 22.5762C98.4248 22.8962 98.2315 23.2762 97.8448 23.7162C97.4715 24.1429 96.9315 24.5162 96.2248 24.8362C95.5182 25.1562 94.6982 25.3162 93.7648 25.3162ZM95.9848 19.0162V18.9562C95.9848 18.1695 95.7848 17.5362 95.3848 17.0562C94.9982 16.5762 94.4582 16.3362 93.7648 16.3362C93.0715 16.3362 92.5315 16.5762 92.1448 17.0562C91.7582 17.5362 91.5648 18.1695 91.5648 18.9562V19.0162H95.9848ZM104.768 25.3162C103.768 25.3162 102.928 25.1695 102.248 24.8762C101.568 24.5695 101.061 24.2162 100.728 23.8162C100.408 23.4029 100.248 23.0495 100.248 22.7562C100.248 22.6229 100.294 22.5162 100.388 22.4362C100.481 22.3562 100.588 22.3162 100.708 22.3162H102.288C102.408 22.3162 102.508 22.3629 102.588 22.4562C102.641 22.4962 102.781 22.6162 103.008 22.8162C103.234 23.0295 103.501 23.1962 103.808 23.3162C104.114 23.4362 104.454 23.4962 104.828 23.4962C105.361 23.4962 105.801 23.3895 106.148 23.1762C106.494 22.9629 106.668 22.6695 106.668 22.2962C106.668 22.0162 106.588 21.7895 106.428 21.6162C106.281 21.4429 106.008 21.2895 105.608 21.1562C105.208 21.0095 104.614 20.8562 103.828 20.6962C102.694 20.4562 101.854 20.0895 101.308 19.5962C100.774 19.1029 100.508 18.4495 100.508 17.6362C100.508 17.1029 100.668 16.6029 100.988 16.1362C101.308 15.6562 101.781 15.2695 102.408 14.9762C103.048 14.6695 103.808 14.5162 104.688 14.5162C105.581 14.5162 106.354 14.6629 107.008 14.9562C107.661 15.2362 108.154 15.5762 108.488 15.9762C108.834 16.3629 109.008 16.7095 109.008 17.0162C109.008 17.1362 108.961 17.2429 108.868 17.3362C108.788 17.4162 108.688 17.4562 108.568 17.4562H107.088C106.981 17.4562 106.868 17.4095 106.748 17.3162C106.654 17.2495 106.508 17.1229 106.308 16.9362C106.108 16.7495 105.874 16.6029 105.608 16.4962C105.341 16.3895 105.028 16.3362 104.668 16.3362C104.174 16.3362 103.788 16.4429 103.508 16.6562C103.241 16.8695 103.108 17.1495 103.108 17.4962C103.108 17.7495 103.174 17.9562 103.308 18.1162C103.441 18.2762 103.701 18.4295 104.088 18.5762C104.474 18.7229 105.054 18.8695 105.828 19.0162C107.108 19.2695 108.021 19.6629 108.568 20.1962C109.128 20.7295 109.408 21.3829 109.408 22.1562C109.408 23.0895 109.001 23.8495 108.188 24.4362C107.374 25.0229 106.234 25.3162 104.768 25.3162ZM115.552 25.1162C115.126 25.1162 114.852 24.9162 114.732 24.5162L110.652 11.7162L110.612 11.5362C110.612 11.4295 110.652 11.3362 110.732 11.2562C110.826 11.1629 110.932 11.1162 111.052 11.1162H113.532C113.719 11.1162 113.872 11.1695 113.992 11.2762C114.126 11.3829 114.212 11.5029 114.252 11.6362L117.092 20.8762L119.912 11.6362C119.952 11.5029 120.032 11.3829 120.152 11.2762C120.286 11.1695 120.446 11.1162 120.632 11.1162H123.132C123.239 11.1162 123.332 11.1629 123.412 11.2562C123.506 11.3362 123.552 11.4295 123.552 11.5362L123.512 11.7162L119.432 24.5162C119.312 24.9162 119.039 25.1162 118.612 25.1162H115.552ZM125.92 25.1162C125.786 25.1162 125.666 25.0695 125.56 24.9762C125.466 24.8695 125.42 24.7495 125.42 24.6162V11.6162C125.42 11.4695 125.466 11.3495 125.56 11.2562C125.666 11.1629 125.786 11.1162 125.92 11.1162H131.52C133.226 11.1162 134.566 11.5095 135.54 12.2962C136.526 13.0829 137.02 14.2295 137.02 15.7362C137.02 17.2295 136.533 18.3562 135.56 19.1162C134.586 19.8629 133.24 20.2362 131.52 20.2362H129.14V24.6162C129.14 24.7629 129.086 24.8829 128.98 24.9762C128.886 25.0695 128.766 25.1162 128.62 25.1162H125.92ZM131.42 17.4762C132.006 17.4762 132.466 17.3295 132.8 17.0362C133.133 16.7295 133.3 16.2829 133.3 15.6962C133.3 15.1495 133.14 14.7162 132.82 14.3962C132.513 14.0629 132.046 13.8962 131.42 13.8962H129.08V17.4762H131.42ZM139.435 25.1162C139.302 25.1162 139.182 25.0695 139.075 24.9762C138.982 24.8695 138.935 24.7495 138.935 24.6162V11.6162C138.935 11.4695 138.982 11.3495 139.075 11.2562C139.182 11.1629 139.302 11.1162 139.435 11.1162H141.555C141.888 11.1162 142.115 11.2429 142.235 11.4962L147.115 19.1762V11.6162C147.115 11.4695 147.162 11.3495 147.255 11.2562C147.362 11.1629 147.482 11.1162 147.615 11.1162H150.015C150.162 11.1162 150.282 11.1629 150.375 11.2562C150.468 11.3495 150.515 11.4695 150.515 11.6162V24.5962C150.515 24.7429 150.468 24.8695 150.375 24.9762C150.282 25.0695 150.162 25.1162 150.015 25.1162H147.875C147.582 25.1162 147.362 24.9895 147.215 24.7362L142.335 17.3362V24.6162C142.335 24.7495 142.288 24.8695 142.195 24.9762C142.102 25.0695 141.982 25.1162 141.835 25.1162H139.435Z" fill="#0B132A"/>
<g filter="url(#filter0_d_2_283)">
<path d="M35.1473 13.6477L35.1255 13.626C35.1238 13.6247 35.1224 13.6231 35.1215 13.6212L21.5006 0L7.87983 13.6209C7.87826 13.6225 7.8758 13.6256 7.8758 13.6256L7.85333 13.6474C5.77053 15.7419 4.44759 18.4725 4.09482 21.4052C3.74205 24.3379 4.3797 27.3044 5.90639 29.8331C7.43309 32.3619 9.76122 34.3077 12.5207 35.3612C15.2802 36.4147 18.3126 36.5157 21.136 35.6477C21.3735 35.5751 21.6275 35.5751 21.8651 35.6477C24.6882 36.5153 27.7205 36.4144 30.4798 35.3607C33.2391 34.307 35.567 32.3613 37.0936 29.8328C38.6202 27.3042 39.2579 24.3379 38.9053 21.4054C38.5526 18.4728 37.2299 15.7422 35.1473 13.6477ZM12.7232 22.6298C12.6569 22.6961 12.6043 22.7749 12.5684 22.8615C12.5326 22.948 12.5141 23.0408 12.5141 23.1346C12.5384 25.5386 13.2178 27.8904 14.4792 29.9371C14.5079 29.9835 14.5211 30.0379 14.517 30.0922C14.513 30.1465 14.4918 30.1982 14.4566 30.2399C14.4213 30.2816 14.3738 30.311 14.3209 30.324C14.2679 30.337 14.2122 30.333 14.1616 30.3124C13.2133 29.9135 12.3518 29.3336 11.6253 28.6053C10.1365 27.1162 9.29946 25.097 9.2981 22.9912C9.29675 20.8855 10.1312 18.8652 11.6181 17.3743L21.5006 7.49273L31.3826 17.3743C32.8698 18.865 33.7045 20.8853 33.703 22.9912C33.7018 25.097 32.8647 27.1162 31.3757 28.6053C30.6492 29.3336 29.7877 29.9135 28.8396 30.3124C28.7889 30.333 28.7332 30.337 28.6802 30.324C28.6273 30.311 28.5798 30.2814 28.5445 30.2399C28.5093 30.1982 28.488 30.1465 28.484 30.092C28.4799 30.0377 28.4931 29.9833 28.5218 29.9369C29.7835 27.8904 30.4633 25.5386 30.4879 23.1346C30.4879 23.0408 30.4692 22.948 30.4332 22.8613C30.3971 22.7746 30.3444 22.696 30.2779 22.6296L25.6037 17.6717C25.557 17.6329 25.4985 17.6116 25.4378 17.6116C25.3773 17.6116 25.3186 17.6329 25.2721 17.6717C25.2255 17.7104 25.1942 17.7644 25.1833 17.824C25.1724 17.8837 25.1828 17.945 25.2127 17.9978C27.0281 21.283 25.467 26.0017 22.8637 28.6053L22.85 28.6191C22.4907 28.9745 22.0056 29.1738 21.5002 29.1736C20.9948 29.1734 20.5098 28.9738 20.1508 28.6182L20.1382 28.6053C17.5339 26.0017 15.9736 21.2835 17.7893 17.9985C17.8192 17.9457 17.8296 17.8844 17.8187 17.8247C17.8079 17.7651 17.7764 17.7111 17.7299 17.6724C17.6834 17.6336 17.6247 17.6123 17.5642 17.6123C17.5036 17.6123 17.4449 17.6336 17.3984 17.6724L12.7232 22.6298Z" fill="#F53838"/>
</g>
<defs>
<filter id="filter0_d_2_283" x="0" y="0" width="43" height="44.2324" filterUnits="userSpaceOnUse" color-interpolation-filters="sRGB">
<feFlood flood-opacity="0" result="BackgroundImageFix"/>
<feColorMatrix in="SourceAlpha" type="matrix" values="0 0 0 0 0 0 0 0 0 0 0 0 0 0 0 0 0 0 127 0" result="hardAlpha"/>
<feOffset dy="4"/>
<feGaussianBlur stdDeviation="2"/>
<feComposite in2="hardAlpha" operator="out"/>
<feColorMatrix type="matrix" values="0 0 0 0 0 0 0 0 0 0 0 0 0 0 0 0 0 0 0.25 0"/>
<feBlend mode="normal" in2="BackgroundImageFix" result="effect1_dropShadow_2_283"/>
<feBlend mode="normal" in="SourceGraphic" in2="effect1_dropShadow_2_283" result="shape"/>
</filter>
</defs>
</svg>
